<?xml version="1.0" encoding="utf-8"?>
<!-- Generator: Adobe Illustrator 26.2.1, SVG Export Plug-In . SVG Version: 6.00 Build 0)  -->
<svg version="1.1" xmlns="http://www.w3.org/2000/svg" xmlns:xlink="http://www.w3.org/1999/xlink" x="0px" y="0px"
	 viewBox="0 0 46 46" style="enable-background:new 0 0 46 46;" xml:space="preserve">
<style type="text/css">
	.st0{display:none;}
	.st1{display:inline;fill:#D17838;stroke:#000000;stroke-width:10;stroke-linecap:round;stroke-miterlimit:10;}
	.st2{fill:#9AEBDD;}
	.st3{fill:#3D5A59;}
	.st4{fill:#FFFFFF;}
	.st5{fill:#D17838;stroke:#000000;stroke-width:10;}
	.st6{fill:none;stroke:#000000;stroke-width:5;stroke-linecap:round;stroke-miterlimit:10;}
	.st7{fill:none;stroke:#000000;stroke-width:6;stroke-linecap:round;stroke-miterlimit:10;}
	.st8{fill:#D17838;stroke:#000000;stroke-width:6;stroke-linecap:round;stroke-miterlimit:10;}
	.st9{fill:none;stroke:#000000;stroke-width:4;stroke-linecap:round;stroke-miterlimit:10;}
	.st10{stroke:#000000;stroke-linecap:round;stroke-miterlimit:10;}
	.st11{fill:#070707;stroke:#000000;stroke-width:5;stroke-miterlimit:10;}
	.st12{fill:#998F91;}
	.st13{fill:none;stroke:#FFFFFF;stroke-width:2;stroke-miterlimit:10;}
	.st14{clip-path:url(#SVGID_00000147904599297052998410000010135961613160719233_);}
	.st15{fill:#D17838;stroke:#000000;stroke-width:0.75;}
	.st16{fill:none;stroke:#000000;stroke-width:0.75;stroke-linecap:round;stroke-miterlimit:10;}
	.st17{fill:#D17838;stroke:#000000;stroke-width:0.75;stroke-linecap:round;stroke-miterlimit:10;}
	.st18{stroke:#000000;stroke-width:0.75;stroke-linecap:round;stroke-miterlimit:10;}
	.st19{fill:#070707;stroke:#000000;stroke-width:0.75;stroke-miterlimit:10;}
	.st20{fill:none;stroke:#FFFFFF;stroke-width:0.75;stroke-miterlimit:10;}
</style>
<g id="tail" class="st0">
	<path class="st1" d="M-734.3,32.5c0,0-12.7,13-12.7,13c-0.5,0.5-7.9-1.2-9.2-1c-1.9,0.2-3.6,0.6-4.5,2.4c-0.4,0.9,0.5,2.6,0.1,3.1
		c-1.1,1.6-4.5,1.6-6.1,2.3c-2,0.8-4,2.1-5.7,3.4c-1.8,1.4-10.2,10.5-7.5,13.2c6.1,6.1-1.5,14.7-0.9,21.6c0.6,7.5,7.9,8.3,13.9,9.4
		c2,0.3,10.1,8.1,24.4,8.5c1.6-0.3,20.3,12.8,38.2,7.6C-704.5,113.4-734.3,32.5-734.3,32.5z"/>
</g>
<g id="Layer_8">
	<rect x="-970.1" y="-751" class="st2" width="768" height="1362.5"/>
	<rect x="-970.1" y="54.7" class="st3" width="768" height="556.8"/>
	<text transform="matrix(1 0 0 1 -574.3364 -446.1627)" style="fill:#EF206B; font-family:'Love'; font-size:100px;">o</text>
	
		<text transform="matrix(1 0 0 1 -734.1021 -444.1963)" style="stroke:#000000;stroke-miterlimit:10; font-family:'Love'; font-size:72px;">safe</text>
	
		<text transform="matrix(1 0 0 1 -586.1074 -390.3543)" style="stroke:#000000;stroke-miterlimit:10; font-family:'Love'; font-size:72px;">HAVEN</text>
	<rect x="-969.1" y="14.6" class="st4" width="767" height="40.1"/>
</g>
<g id="body">
</g>
<g id="hands">
</g>
<g id="eyes">
</g>
<g id="mouth">
</g>
<g id="nose">
</g>
<g id="highlights">
	<g>
		<path class="st5" d="M-633.1-312.8c-8.5,3.3-17.4,6.8-28,14c-32.9,22.4-40.3,52.1-40,54c0.2,1.2-11.7-1.8-12.8-2
			c-6.9-1.1-14.6,3-19.7,7.4c-4.4,3.7-7.2,8.7-8.1,14.3c-1.8,11.9,4.6,33.6,20.7,30.4c0.4-0.1,0.7-0.1,1,0.1
			c0.7,0.4-9.8,7.8-10.4,8.6c-2.6,3.5-2.8,12.2,0.4,15.4c4,4,0,45-3,67c-3.3,23.8-5.1,48-6.7,72c-3.2,49.2-6.8,93.2,23,135.3
			c24.2,34.2,61,58.5,102,67.1c12.9,2.7,25.9,5.3,39.1,7c6.5,0.8,13,1.5,19.6,1.8c24.1,1.1,49.9,1.1,74-2.7
			c15.4-2.4,29.7-8.9,43.6-15.6c12.7-6.1,24.6-14.1,33.5-25.2c7.3-9.2,12.3-20,14.9-31.5c7-31,18-133-10-182c-10-15-22-50-22-50
			s7-29,4-50c-4.1-28.9-24.8-62.1-47-81c-20-17-20-17-20-17s-4-51-37-32c-3,3-3,3-3,3l-12-7.2c0,0,6-34.8-15-6.8c-3,6-17,1-17,1
			c-4.1-1.5-10.3-3.3-18-4C-605.2-323.5-619.5-318.1-633.1-312.8z"/>
		<g>
			<path class="st6" d="M-617.8-37.5c0,0,36.2,36.5,82.3,37.1"/>
			<path class="st7" d="M-542.6-14.4c0,0,11.7,13.7,16.9,15.6s15.3,3.9,10.1-7.8c-1.3-1.1-2.7-2.4-4.1-3.6
				c-7-6.1-14.5-12.7-14.5-12.7"/>
			<path class="st7" d="M-518.2-8.9c0,0,17.7,14.1,11.2-5.8c-0.7-0.9-21.3-19.5-21.3-19.5"/>
			<path class="st6" d="M-507.7-19c1.2,1.2,2.8,2.3,4.5,2.3c5.4-0.1,2.2-8.6,1.5-11.3c-2.4-9.3-11.3-18.1-18.4-24.2
				c-8.1-6.9-17.7-11.6-28-14.3"/>
		</g>
		<g>
			<path class="st6" d="M-423.6-124.9c0,0,34,53.5,4.5,88.9"/>
			<path class="st7" d="M-425.1-50.5c0,0,2.7,17.8,0.8,23s-7,14.2-12.5,2.6c0-1.7,0-3.6-0.1-5.4c-0.1-9.3-0.2-19.3-0.2-19.3"/>
			<path class="st7" d="M-436.8-28.5c0,0-0.8,22.6-11.7,4.7c-0.2-1.1-1-28.9-1-28.9"/>
			<path class="st6" d="M-451.4-27c0.1,1.7,0,3.6-1.2,4.9c-3.6,4-8-3.9-9.6-6.2c-7.2-10.3-9.7-27-3.5-38.3
				c6.6-11.9,18.1-20.9,24-33.1"/>
		</g>
		<path class="st8" d="M-555.7,146.6c0,0,31.8-20.5,57.4,0c-15.8,33.2-12.6,38.1-12.6,38.1s-28.9,18.4-45.1-5.5
			C-557.7,162.2-555.7,146.6-555.7,146.6z"/>
		<path class="st8" d="M-391,115.5c0,0-14.8-13.7-31.5-11c-1.5,0.2-3.1,0.6-4.6,1.2c-4.6,1.6-9.3,4.7-13.8,9.8
			c13.7,41.2,11,47.3,11,47.3s25.1,22.8,39.2-6.8C-389.2,135-391,115.5-391,115.5z"/>
		<line class="st8" x1="-539.8" y1="139.7" x2="-539.8" y2="155"/>
		<line class="st8" x1="-517.5" y1="139.7" x2="-517.5" y2="155"/>
		<line class="st8" x1="-424.8" y1="108.5" x2="-423.2" y2="125.3"/>
		<line class="st8" x1="-407.1" y1="108.1" x2="-405.1" y2="123.1"/>
		<path d="M-613.8-225.3c0,0,2.8,10.6-10.3,13.7c-0.8,0.3-12.5,1-10.1-16.3c0.5-1.8,3.7-10.1,14-7.2
			C-619.3-234.8-614.3-232.3-613.8-225.3z"/>
		<path d="M-480-259.4"/>
		<path d="M-488.8-247.2"/>
		<path d="M-480-259.4c0.5,1.8-0.4,5-1,6.6c-1.5,4.2-5.5,6.1-9.8,5.6c-7.1-0.9-13.6-10-9.7-16.8c1.1-1.9,2.5-3.8,4.4-4.9
			c3.6-2.2,6.7,0.1,9.5,2.4C-484.5-264.7-480.8-262.2-480-259.4z"/>
		<path class="st7" d="M-516.7-186l6.7,45.1c0,0-17.4,29.1-31.3,8.7"/>
		<path class="st6" d="M-516.7-186l6.7,45.1c0,0,20.3,20.4,30.1-8.7"/>
		<line class="st6" x1="-564.7" y1="-171.3" x2="-582.3" y2="-168.6"/>
		<line class="st6" x1="-571.7" y1="-160" x2="-582.3" y2="-152.6"/>
		<line class="st6" x1="-564.7" y1="-152.6" x2="-573.5" y2="-145.9"/>
		<line class="st6" x1="-560.4" y1="-143.5" x2="-564" y2="-136.6"/>
		<line class="st9" x1="-460.5" y1="-205.6" x2="-415.3" y2="-227.8"/>
		<line class="st9" x1="-432.9" y1="-213.2" x2="-418.1" y2="-219.3"/>
		<line class="st9" x1="-449.8" y1="-202.6" x2="-407.1" y2="-211.7"/>
		<line class="st9" x1="-426.8" y1="-201.3" x2="-412.1" y2="-201.3"/>
		<path class="st9" d="M-449.8-193c0,0,31.3-3.3,35.6-2"/>
		<line class="st9" x1="-422.5" y1="-190" x2="-413.4" y2="-186.9"/>
		<path class="st10" d="M-495.4-170.3c0,0,3.6,1,2.4,2s-3.4,1.3-3.4,1.3L-495.4-170.3z"/>
		<path class="st10" d="M-488-179.7c0,0,2.8,0.2,2.8,0.8s-2.1,2.4-2.8,2C-488.7-177.4-488-179.7-488-179.7z"/>
		<path class="st10" d="M-479.9-191c0,0,3-0.5,2.5,1c-0.5,1.5-3.6,2.2-3.6,1.5C-481-189.2-479.9-191-479.9-191z"/>
		<path class="st10" d="M-474.5-194.2c0,0,1.5-2,2.1-2s1.8,1,1.8,1S-473.7-192.5-474.5-194.2z"/>
		<path class="st10" d="M-467.5-202.6c0,0,3.7-0.5,3.5,0c-0.2,0.5-1.9,4.3-3.5,3.5S-467.5-202.6-467.5-202.6z"/>
		<path class="st10" d="M-457.4-199c0,0,2,0.9,1.5,1.4c-0.5,0.5-3.4,2.1-3.7,1.5C-460-196.8-457.4-199-457.4-199z"/>
		<path class="st10" d="M-468.2-188.5c0,0,3.3-0.6,3.3,0.3c0,0.8-2.6,2.9-3.3,2.4C-469-186.4-468.2-188.5-468.2-188.5z"/>
		<path class="st10" d="M-475.5-181c0,0,1.3,2.4,1,2.7c-0.3,0.4-2.7,0.6-2.9,0C-477.6-178.9-475.5-181-475.5-181z"/>
		<path class="st10" d="M-484.3-171.6c0,0,3.7,0.3,3.3,1.3c-0.5,1-2.9,1.8-3.3,1.6C-484.6-168.8-484.3-171.6-484.3-171.6z"/>
		<path class="st10" d="M-473.2-170.3c0,0,3.1-1.1,2.6,0.2c-0.5,1.3-2.3,3.1-2.6,2.4C-473.5-168.3-473.2-170.3-473.2-170.3z"/>
		<path class="st10" d="M-457.8-185.7c0,0,4.6-0.8,4.1,2.2c-1.6,1.4-7.3,1.7-7.8,0.7C-462-183.8-461.1-185.1-457.8-185.7z"/>
		<path class="st10" d="M-466.7-178.3c0,0,6.9,1.3,6.2,3C-461.1-173.7-466.6-172.3-466.7-178.3z"/>
		<path class="st10" d="M-548.1-172.9c-0.3,0.5-1.6,3.8-1,3.8c0.7,0,4.9-1.3,4.1-2.5C-545.8-172.7-548.1-172.9-548.1-172.9z"/>
		<path class="st10" d="M-555.4-165.6c0,0,3-0.2,2.4,1c-0.7,1.1-1.5,2.9-2.4,2C-556.3-163.6-555.4-165.6-555.4-165.6z"/>
		<path class="st10" d="M-551.7-156.9c0,0,4,1.3,2.4,2.3c-1.6,1-3.6,0.7-3.6,0.7L-551.7-156.9z"/>
		<path class="st10" d="M-542.4-164c0,0,2.1,1.7,1.1,2.3S-546.5-160.2-542.4-164z"/>
		<path class="st10" d="M-535.1-165.6c0,0,3.6,0.3,1.8,1.6C-535.1-162.6-536.2-163.3-535.1-165.6z"/>
		<path class="st10" d="M-521.6-160c0,0,1.9,2.9,0,3C-523.5-156.8-524-158.1-521.6-160z"/>
		<path class="st10" d="M-536.4-155.5c0,0,2.5,2.6,0.8,2.8C-537.2-152.4-540.1-152.4-536.4-155.5z"/>
		<path class="st10" d="M-550.9-146.8c0,0,5.2,2.6,1.6,3.3S-555.2-143.4-550.9-146.8z"/>
		<path class="st9" d="M-502.6-73.4c0,0,14.6-2.8,23.9-8.5"/>
		<path class="st11" d="M-551.6-215c2.1-2.1,5.1-3.1,9.4-4.6c4.2-1.5,8.5-2.8,12.8-4c4.6-1.2,9.3-2.3,14.1-3
			c5.9-0.9,11.5-2.9,16.5,1.6c7,6.4,12.5,18.6,8.2,27.8c-1.3,2.8-9.5,5.9-12.4,7.2c-4.3,1.9-8.9,3-13.4,4c-13.3,3.1-30.1,6-37.1-9.5
			c-1.7-3.7-1.9-7.7-1.2-11.7C-554.4-210.9-553.3-213.3-551.6-215z"/>
		<path class="st12" d="M-516.2-197.5c0,0-10.7,20.3-25.7,7.2c-7.8-7.9-18.3-19.6,2-27.6c7.7-2,15.4-3.9,23.2-5.5
			c7.2-1.6,11.2-3.9,16.8,1.9c3.2,3.4,11.5,13.3,7.2,18.5c-1.4,1.7-5.8,9.6-14,10.7C-508.5-192-512.9-193.7-516.2-197.5z"/>
		<path class="st4" d="M-627.3-230.6c0,0,1.8-0.3,2.6,0.8s-0.2,2.9-3.3,2.5C-628.7-228.2-627.3-230.6-627.3-230.6z"/>
		<path class="st4" d="M-493.4-266.3c0,0,6.6,0,5.1,4.6C-488.7-261.4-494.9-259.7-493.4-266.3z"/>
		<path class="st13" d="M-492.1-279.7"/>
		<path class="st13" d="M-511.7-306.8"/>
	</g>
	<g>
		<g>
			<defs>
				<ellipse id="SVGID_1_" cx="24" cy="21" rx="27.9" ry="24.9"/>
			</defs>
			<clipPath id="SVGID_00000174599053664848136330000015363323761951157152_">
				<use xlink:href="#SVGID_1_"  style="overflow:visible;"/>
			</clipPath>
			<g style="clip-path:url(#SVGID_00000174599053664848136330000015363323761951157152_);">
				<path class="st15" d="M15.4,3c-1.1,0.4-2.2,0.9-3.6,1.8c-4.2,2.8-5.1,6.6-5.1,6.9c0,0.2-1.5-0.2-1.6-0.3
					c-0.9-0.1-1.9,0.4-2.5,0.9c-0.6,0.5-0.9,1.1-1,1.8c-0.2,1.5,0.6,4.3,2.6,3.9c0,0,0.1,0,0.1,0c0.1,0.1-1.2,1-1.3,1.1
					c-0.3,0.4-0.4,1.6,0,2c0.5,0.5,0,5.7-0.4,8.5c-0.4,3-0.7,6.1-0.8,9.2c-0.4,6.3-0.9,11.9,2.9,17.2c3.1,4.4,7.8,7.5,13,8.5
					c1.6,0.3,3.3,0.7,5,0.9c0.8,0.1,1.7,0.2,2.5,0.2c3.1,0.1,6.4,0.1,9.4-0.3c2-0.3,3.8-1.1,5.6-2c1.6-0.8,3.1-1.8,4.3-3.2
					c0.9-1.2,1.6-2.6,1.9-4c0.9-3.9,2.3-16.9-1.3-23.2c-1.3-1.9-2.8-6.4-2.8-6.4s0.9-3.7,0.5-6.4c-0.5-3.7-3.2-7.9-6-10.3
					c-2.5-2.2-2.5-2.2-2.5-2.2s-0.5-6.5-4.7-4.1c-0.4,0.4-0.4,0.4-0.4,0.4l-1.5-0.9c0,0,0.8-4.4-1.9-0.9c-0.4,0.8-2.2,0.1-2.2,0.1
					C23,2.2,22.2,2,21.2,1.9C18.9,1.7,17.1,2.4,15.4,3z"/>
				<g>
					<path class="st16" d="M17.3,38.1c0,0,4.6,4.6,10.5,4.7"/>
					<path class="st16" d="M26.9,41.1c0,0,1.5,1.7,2.2,2c0.7,0.2,2,0.5,1.3-1c-0.2-0.1-0.3-0.3-0.5-0.5C28.9,40.8,28,40,28,40"/>
					<path class="st16" d="M30,41.8c0,0,2.3,1.8,1.4-0.7c-0.1-0.1-2.7-2.5-2.7-2.5"/>
					<path class="st16" d="M31.4,40.5c0.2,0.2,0.4,0.3,0.6,0.3c0.7,0,0.3-1.1,0.2-1.4c-0.3-1.2-1.4-2.3-2.3-3.1
						c-1-0.9-2.3-1.5-3.6-1.8"/>
				</g>
				<g>
					<path class="st16" d="M42.1,27c0,0,4.3,6.8,0.6,11.3"/>
					<path class="st16" d="M41.9,36.5c0,0,0.4,2.3,0.1,2.9c-0.2,0.7-0.9,1.8-1.6,0.3c0-0.2,0-0.5,0-0.7c0-1.2,0-2.5,0-2.5"/>
					<path class="st16" d="M40.4,39.3c0,0-0.1,2.9-1.5,0.6c0-0.1-0.1-3.7-0.1-3.7"/>
					<path class="st16" d="M38.5,39.5c0,0.2,0,0.5-0.1,0.6c-0.5,0.5-1-0.5-1.2-0.8c-0.9-1.3-1.2-3.4-0.4-4.9
						c0.8-1.5,2.3-2.7,3.1-4.2"/>
				</g>
				<path class="st17" d="M25.2,61.6c0,0,4.1-2.6,7.3,0c-2,4.2-1.6,4.9-1.6,4.9s-3.7,2.3-5.7-0.7C25,63.6,25.2,61.6,25.2,61.6z"/>
				<path class="st17" d="M46.2,57.6c0,0-1.9-1.7-4-1.4c-0.2,0-0.4,0.1-0.6,0.1c-0.6,0.2-1.2,0.6-1.8,1.2c1.7,5.2,1.4,6,1.4,6
					s3.2,2.9,5-0.9C46.5,60.1,46.2,57.6,46.2,57.6z"/>
				<line class="st17" x1="27.3" y1="60.7" x2="27.3" y2="62.7"/>
				<line class="st17" x1="30.1" y1="60.7" x2="30.1" y2="62.7"/>
				<line class="st17" x1="41.9" y1="56.7" x2="42.1" y2="58.9"/>
				<line class="st17" x1="44.2" y1="56.7" x2="44.4" y2="58.6"/>
				<path d="M17.8,14.2c0,0,0.4,1.3-1.3,1.7c-0.1,0-1.6,0.1-1.3-2.1c0.1-0.2,0.5-1.3,1.8-0.9C17.1,13,17.8,13.3,17.8,14.2z"/>
				<path d="M34.9,9.9"/>
				<path d="M33.8,11.4"/>
				<path d="M34.9,9.9c0.1,0.2-0.1,0.6-0.1,0.8c-0.2,0.5-0.7,0.8-1.2,0.7c-0.9-0.1-1.7-1.3-1.2-2.1c0.1-0.2,0.3-0.5,0.6-0.6
					c0.5-0.3,0.9,0,1.2,0.3C34.3,9.2,34.8,9.5,34.9,9.9z"/>
				<path class="st16" d="M30.2,19.2l0.8,5.7c0,0-2.2,3.7-4,1.1"/>
				<path class="st16" d="M30.2,19.2l0.8,5.7c0,0,2.6,2.6,3.8-1.1"/>
				<line class="st16" x1="24.1" y1="21.1" x2="21.8" y2="21.4"/>
				<line class="st16" x1="23.2" y1="22.5" x2="21.8" y2="23.5"/>
				<line class="st16" x1="24.1" y1="23.5" x2="23" y2="24.3"/>
				<line class="st16" x1="24.6" y1="24.6" x2="24.2" y2="25.5"/>
				<line class="st16" x1="37.4" y1="16.7" x2="43.1" y2="13.9"/>
				<line class="st16" x1="40.9" y1="15.7" x2="42.8" y2="15"/>
				<line class="st16" x1="38.7" y1="17.1" x2="44.2" y2="15.9"/>
				<line class="st16" x1="41.7" y1="17.3" x2="43.5" y2="17.3"/>
				<path class="st16" d="M38.7,18.3c0,0,4-0.4,4.5-0.2"/>
				<line class="st16" x1="42.2" y1="18.7" x2="43.4" y2="19.1"/>
				<path class="st18" d="M32.9,21.2c0,0,0.5,0.1,0.3,0.2s-0.4,0.2-0.4,0.2L32.9,21.2z"/>
				<path class="st18" d="M33.9,20c0,0,0.4,0,0.4,0.1s-0.3,0.3-0.4,0.2C33.8,20.3,33.9,20,33.9,20z"/>
				<path class="st18" d="M34.9,18.6c0,0,0.4-0.1,0.3,0.1c-0.1,0.2-0.5,0.3-0.5,0.2C34.8,18.8,34.9,18.6,34.9,18.6z"/>
				<path class="st18" d="M35.6,18.2c0,0,0.2-0.3,0.3-0.3c0.1,0,0.2,0.1,0.2,0.1S35.7,18.4,35.6,18.2z"/>
				<path class="st18" d="M36.5,17.1c0,0,0.5-0.1,0.4,0c0,0.1-0.2,0.5-0.4,0.4C36.3,17.4,36.5,17.1,36.5,17.1z"/>
				<path class="st18" d="M37.8,17.5c0,0,0.2,0.1,0.2,0.2c-0.1,0.1-0.4,0.3-0.5,0.2S37.8,17.5,37.8,17.5z"/>
				<path class="st18" d="M36.4,18.9c0,0,0.4-0.1,0.4,0c0,0.1-0.3,0.4-0.4,0.3C36.3,19.2,36.4,18.9,36.4,18.9z"/>
				<path class="st18" d="M35.5,19.8c0,0,0.2,0.3,0.1,0.3s-0.3,0.1-0.4,0S35.5,19.8,35.5,19.8z"/>
				<path class="st18" d="M34.3,21c0,0,0.5,0,0.4,0.2c-0.1,0.1-0.4,0.2-0.4,0.2S34.3,21,34.3,21z"/>
				<path class="st18" d="M35.8,21.2c0,0,0.4-0.1,0.3,0c-0.1,0.2-0.3,0.4-0.3,0.3C35.7,21.5,35.8,21.2,35.8,21.2z"/>
				<path class="st18" d="M37.7,19.2c0,0,0.6-0.1,0.5,0.3c-0.2,0.2-0.9,0.2-1,0.1C37.2,19.5,37.3,19.3,37.7,19.2z"/>
				<path class="st18" d="M36.6,20.2c0,0,0.9,0.2,0.8,0.4C37.3,20.8,36.6,20.9,36.6,20.2z"/>
				<path class="st18" d="M26.2,20.9c0,0.1-0.2,0.5-0.1,0.5c0.1,0,0.6-0.2,0.5-0.3C26.5,20.9,26.2,20.9,26.2,20.9z"/>
				<path class="st18" d="M25.3,21.8c0,0,0.4,0,0.3,0.1c-0.1,0.1-0.2,0.4-0.3,0.2S25.3,21.8,25.3,21.8z"/>
				<path class="st18" d="M25.7,22.9c0,0,0.5,0.2,0.3,0.3c-0.2,0.1-0.5,0.1-0.5,0.1L25.7,22.9z"/>
				<path class="st18" d="M26.9,22c0,0,0.3,0.2,0.1,0.3C27,22.4,26.4,22.5,26.9,22z"/>
				<path class="st18" d="M27.9,21.8c0,0,0.5,0,0.2,0.2C27.9,22.2,27.7,22.1,27.9,21.8z"/>
				<path class="st18" d="M29.6,22.5c0,0,0.2,0.4,0,0.4S29.3,22.8,29.6,22.5z"/>
				<path class="st18" d="M27.7,23.1c0,0,0.3,0.3,0.1,0.4C27.6,23.5,27.2,23.5,27.7,23.1z"/>
				<path class="st18" d="M25.8,24.2c0,0,0.7,0.3,0.2,0.4S25.3,24.6,25.8,24.2z"/>
				<path class="st16" d="M32,33.6c0,0,1.9-0.4,3-1.1"/>
				<path class="st19" d="M25.8,15.5c0.3-0.3,0.7-0.4,1.2-0.6c0.5-0.2,1.1-0.4,1.6-0.5c0.6-0.2,1.2-0.3,1.8-0.4
					c0.8-0.1,1.5-0.4,2.1,0.2c0.9,0.8,1.6,2.4,1,3.5c-0.2,0.4-1.2,0.8-1.6,0.9c-0.6,0.2-1.1,0.4-1.7,0.5c-1.7,0.4-3.8,0.8-4.7-1.2
					c-0.2-0.5-0.2-1-0.2-1.5C25.4,16,25.5,15.7,25.8,15.5z"/>
				<path class="st12" d="M30.3,17.7c0,0-1.4,2.6-3.3,0.9c-1-1-2.3-2.5,0.3-3.5c1-0.3,2-0.5,3-0.7c0.9-0.2,1.4-0.5,2.1,0.2
					c0.4,0.4,1.5,1.7,0.9,2.4c-0.2,0.2-0.7,1.2-1.8,1.4C31.3,18.4,30.7,18.2,30.3,17.7z"/>
				<path class="st4" d="M16.1,13.5c0,0,0.2,0,0.3,0.1c0.1,0.1,0,0.4-0.4,0.3C15.9,13.8,16.1,13.5,16.1,13.5z"/>
				<path class="st4" d="M33.2,9c0,0,0.8,0,0.7,0.6C33.8,9.6,33,9.8,33.2,9z"/>
				<path class="st20" d="M33.3,7.3"/>
				<path class="st20" d="M30.8,3.8"/>
			</g>
		</g>
	</g>
</g>
</svg>
